<?xml version="1.0" encoding="utf-8"?>
<svg version="1.1" xmlns="http://www.w3.org/2000/svg" xmlns:xlink="http://www.w3.org/1999/xlink" x="0px" y="0px" viewBox="0 0 32 32" xml:space="preserve">
<g fill-rule="evenodd">
	<path fill="green" d="M22,9.1c-0.5-0.3-1.1-0.1-1.4,0.4l-6.4,11.1l-3.6-3.3c-0.4-0.4-1-0.4-1.4,0c-0.4,0.4-0.4,1,0,1.4l4.6,4.2 c0.4,0.4,1,0.4,1.4,0c0.1-0.1,7.2-12.4,7.2-12.4C22.7,10,22.5,9.3,22,9.1L22,9.1z M16,30C8.3,30,2,23.7,2,16S8.3,2,16,2 s14,6.3,14,14S23.7,30,16,30L16,30z M16,0C7.2,0,0,7.2,0,16s7.2,16,16,16s16-7.2,16-16S24.8,0,16,0L16,0z"/>
</g>
</svg>
