<?xml version="1.0" encoding="utf-8"?>
<svg version="1.2" baseProfile="tiny-ps" xmlns="http://www.w3.org/2000/svg" xmlns:xlink="http://www.w3.org/1999/xlink" viewBox="0 0 767.1 155.5" xml:space="preserve">
<title>ARR Analysis</title>
<g>
	<path d="M208.8,110.4c-2.6,2.9-5.4,5-8.6,6.2c-3.2,1.2-6.9,1.9-11.2,1.9c-6.9,0-12.5-1.7-16.7-5.1c-4.2-3.4-6.3-8.1-6.3-14.2
		c0-5.6,1.9-9.8,5.9-12.7c3.9-2.9,10.4-5.2,19.4-6.7l17.1-2.9v-2.5c0-2.4-0.7-4.3-2.2-5.6s-3.9-2-7.5-2c-3.2,0-5.8,0.7-7.7,2.2
		c-1.9,1.4-2.9,3.4-3,5.9h-18.8c0.1-7.1,2.8-12.5,8.2-16.3c5.4-3.8,12.4-5.7,21-5.7c9.3,0,16.4,1.7,21.2,5.1s7.2,8.1,7.2,14.1v45
		h-18V110.4z M187.6,103.6c1.6,1.2,3.8,1.9,6.8,1.9c3.9,0,7.2-1,9.9-3.1c2.7-2.1,4-5.1,4-9.2v-4.7L195,91.1c-3.5,0.6-6,1.5-7.5,2.5
		c-1.5,1-2.3,2.7-2.3,4.8C185.3,100.6,186,102.3,187.6,103.6z"/>
	<path d="M239.3,54.2h18.5v11.5c3.5-8.1,9.6-12.2,18.1-12.2h5.2v17.3h-6c-5.5,0-9.7,1.4-12.5,4.2c-2.8,2.8-4.2,7.5-4.2,14.1v28
		h-18.9L239.3,54.2L239.3,54.2z"/>
	<path d="M292.2,54.2h18.5v11.5c3.5-8.1,9.6-12.2,18.1-12.2h5.2v17.3h-6c-5.5,0-9.7,1.4-12.5,4.2c-2.8,2.8-4.2,7.5-4.2,14.1v28h-19
		V54.2z"/>
	<path d="M386.9,106.3c-2.5,4.2-5.7,7.3-9.6,9.2c-3.9,2-8.3,3-13.1,3c-6.8,0-12-1.6-15.8-4.9s-5.6-7.7-5.6-13.2
		c0-5.2,1.9-9.2,5.5-12.2c3.7-3,9.4-5.3,17.1-6.9l21.1-4.3v-5.3c0-4.3-1.4-7.5-4-9.5c-2.7-2-6.7-3-12-3c-5.2,0-9.6,1.1-13,3.4
		c-3.5,2.3-5.2,6-5.3,11.1h-7c0.1-6.9,2.5-12.1,7.4-15.6s10.8-5.2,18-5.2c7.5,0,13.2,1.6,17,4.7s5.8,7.6,5.8,13.3V117h-6.5V106.3z
		 M353.8,108.9c2.4,2.2,6,3.3,10.9,3.3c6.3,0,11.5-1.8,15.8-5.5c4.2-3.7,6.3-8.9,6.3-15.9v-8.2l-20.2,4.5
		c-5.9,1.3-10.1,2.9-12.6,4.7s-3.8,4.7-3.8,8.4C350.1,103.9,351.3,106.8,353.8,108.9z"/>
	<path d="M448,63.8c-2.9-3.1-7-4.6-12.4-4.6c-3.2,0-6.3,0.8-9.3,2.5c-3,1.7-5.5,4.2-7.4,7.6s-3,7.6-3,12.6V117h-7V54.2h6.8v11
		c2.1-3.8,4.9-6.8,8.5-9s7.8-3.4,12.7-3.4c7.2,0,12.8,2.2,16.6,6.5c3.8,4.3,5.7,10,5.7,16.9V117h-6.9V76.9
		C452.2,71.2,450.8,66.8,448,63.8z"/>
	<path d="M516.7,106.3c-2.5,4.2-5.7,7.3-9.6,9.2c-3.9,2-8.3,3-13.1,3c-6.8,0-12-1.6-15.8-4.9s-5.6-7.7-5.6-13.2
		c0-5.2,1.9-9.2,5.5-12.2c3.7-3,9.4-5.3,17.1-6.9l21.1-4.3v-5.3c0-4.3-1.3-7.5-4-9.5c-2.7-2-6.7-3-12-3c-5.2,0-9.6,1.1-13,3.4
		c-3.5,2.3-5.2,6-5.3,11.1h-7c0.1-6.9,2.5-12.1,7.4-15.6s10.8-5.2,18-5.2c7.5,0,13.2,1.6,17,4.7c3.9,3.1,5.8,7.6,5.8,13.3V117h-6.5
		V106.3z M483.5,108.9c2.4,2.2,6,3.3,10.9,3.3c6.3,0,11.5-1.8,15.8-5.5c4.2-3.7,6.3-8.9,6.3-15.9v-8.2l-20.2,4.5
		c-5.9,1.3-10.1,2.9-12.6,4.7s-3.8,4.7-3.8,8.4C479.9,103.9,481.1,106.8,483.5,108.9z"/>
	<path d="M545.7,30.1v71.8c0,3,0.5,5.2,1.6,6.7c1.1,1.5,3.1,2.2,6,2.2h7.8v6.2h-8.8c-5.2,0-8.8-1.2-10.7-3.7s-2.9-6.1-2.9-10.8V30.1
		H545.7z"/>
	<path d="M570.2,135h8.9c3,0,5.1-0.6,6.4-1.9c1.3-1.2,2.5-3.5,3.7-6.7l3.6-9.5l-24.5-62.7h7.6l20.5,54.3l20.6-54.3h7.5l-28.8,74
		c-1.2,3.1-2.3,5.4-3.3,7.2s-2.4,3.1-4.2,4.2c-1.8,1-4.1,1.6-6.9,1.6h-11.2L570.2,135L570.2,135z"/>
	<path d="M639.6,112.7c-4.6-3.8-7.1-9.2-7.4-16.2h7.1c0.3,5.2,2.1,9.2,5.4,11.8s7.8,4,13.7,4c5.3,0,9.5-1,12.7-3
		c3.2-2,4.8-4.9,4.8-8.8c0-2.3-0.5-4.2-1.4-5.7s-2.7-2.7-5.2-3.7c-2.5-1-6.3-1.9-11.4-2.7c-6.1-1-10.9-2.2-14.4-3.9
		c-3.5-1.6-5.9-3.6-7.3-5.9c-1.4-2.3-2.1-5.2-2.1-8.7c0-5.2,2.1-9.4,6.3-12.5c4.2-3.1,9.7-4.7,16.4-4.7c7.8,0,13.8,1.8,18.1,5.4
		c4.3,3.6,6.5,8.7,6.6,15.3h-7c-0.5-9.8-6.4-14.7-17.7-14.7c-4.6,0-8.3,1-11.3,2.9c-2.9,1.9-4.4,4.6-4.4,8.1c0,2.4,0.5,4.4,1.6,5.9
		c1.1,1.5,2.9,2.7,5.5,3.7c2.6,1,6.5,1.8,11.5,2.7c6,1,10.7,2.2,14.1,3.8s5.7,3.5,7,5.8c1.3,2.3,2,5.1,2,8.5c0,6-2.3,10.5-6.9,13.6
		s-10.5,4.7-17.6,4.7C650.5,118.5,644.2,116.6,639.6,112.7z"/>
	<path d="M696.2,30.1h7v11.8h-7V30.1z M696.2,54.2h7V117h-7V54.2z"/>
	<path d="M723.9,112.7c-4.6-3.8-7.1-9.2-7.4-16.2h7.1c0.3,5.2,2.1,9.2,5.4,11.8s7.8,4,13.7,4c5.3,0,9.5-1,12.7-3
		c3.2-2,4.8-4.9,4.8-8.8c0-2.3-0.5-4.2-1.4-5.7s-2.7-2.7-5.2-3.7c-2.5-1-6.3-1.9-11.4-2.7c-6.1-1-10.9-2.2-14.4-3.9
		c-3.5-1.6-5.9-3.6-7.3-5.9c-1.4-2.3-2.1-5.2-2.1-8.7c0-5.2,2.1-9.4,6.3-12.5c4.2-3.1,9.7-4.7,16.4-4.7c7.8,0,13.8,1.8,18.1,5.4
		c4.3,3.6,6.5,8.7,6.6,15.3h-7c-0.5-9.8-6.4-14.7-17.7-14.7c-4.6,0-8.3,1-11.3,2.9c-2.9,1.9-4.4,4.6-4.4,8.1c0,2.4,0.5,4.4,1.6,5.9
		c1.1,1.5,2.9,2.7,5.5,3.7c2.6,1,6.5,1.8,11.5,2.7c6,1,10.7,2.2,14.1,3.8s5.7,3.5,7,5.8c1.3,2.3,2,5.1,2,8.5c0,6-2.3,10.5-6.9,13.6
		s-10.5,4.7-17.6,4.7C734.8,118.5,728.5,116.6,723.9,112.7z"/>
</g>
<path d="M13.1,19.5V103c-3,1.3-6,2.7-8.9,4.4c-1.4,0.8-2.8,1.6-4.2,2.5V31.4C3.8,27,8.2,23,13.1,19.5z"/>
<path d="M33.9,95.9v52c-7.6-3.1-14.6-7.1-20.9-11.7V103C19.9,100,26.9,97.9,33.9,95.9z"/>
<path d="M47,3.4v89c-1.6,0.4-3.3,0.9-4.9,1.3c-2.7,0.7-5.4,1.5-8.2,2.2V7.8C38.1,6.1,42.5,4.6,47,3.4z"/>
<path d="M67.9,85.6v69.9c-7.2-0.4-14.2-1.5-20.9-3.2V92.4C54,90.5,61,88.4,67.9,85.6z"/>
<path d="M80.9,0.2v79c-0.3,0.2-0.6,0.4-1,0.6c-3.9,2.3-8,4.2-12.1,5.8V0.2C70.1,0.1,72.2,0,74.4,0C76.6,0,78.8,0.1,80.9,0.2z"/>
<path d="M101.8,63.5v88.7c-6.7,1.7-13.7,2.8-20.9,3.2V79.2C88.4,74.8,95.2,69.3,101.8,63.5z"/>
<path d="M114.9,7.8v44.5c-4.4,3.7-8.7,7.5-13.1,11.2V3.4C106.3,4.6,110.7,6.1,114.9,7.8z"/>
<path d="M135.8,37.9v98.4c-6.3,4.6-13.3,8.6-20.9,11.7V52.3C121.5,46.8,128.3,41.7,135.8,37.9z"/>
</svg>
